<?xml version="1.0" standalone="no"?>
<!DOCTYPE svg PUBLIC "-//W3C//DTD SVG 20010904//EN"
 "http://www.w3.org/TR/2001/REC-SVG-20010904/DTD/svg10.dtd">
<svg version="1.0" xmlns="http://www.w3.org/2000/svg"
 width="848.000000pt" height="848.000000pt" viewBox="0 0 848.000000 848.000000"
 preserveAspectRatio="xMidYMid meet">
<metadata>
Created by potrace 1.11, written by Peter Selinger 2001-2013
</metadata>
<g transform="translate(0.000000,848.000000) scale(0.100000,-0.100000)"
fill="#000000" stroke="none">
<path d="M3907 8473 c-3 -2 -47 -6 -98 -8 -132 -6 -355 -23 -399 -30 -14 -2
-54 -7 -89 -10 -36 -4 -81 -9 -100 -11 -20 -3 -52 -7 -71 -9 -19 -2 -46 -6
-60 -9 -14 -3 -45 -7 -70 -10 -25 -3 -71 -10 -103 -16 -31 -6 -72 -13 -90 -15
-33 -4 -156 -26 -213 -39 -12 -2 -37 -7 -55 -10 -19 -3 -49 -10 -67 -15 -18
-5 -35 -10 -37 -10 -9 -2 -20 -3 -30 -5 -5 -1 -31 -6 -58 -10 -26 -5 -50 -12
-53 -17 -3 -5 -9 -7 -13 -5 -7 5 -291 -65 -411 -101 -30 -9 -57 -17 -60 -18
-3 -1 -14 -4 -25 -7 -110 -35 -231 -73 -237 -74 -5 -1 -10 -3 -13 -4 -3 -1 -8
-3 -12 -5 -5 -1 -15 -4 -23 -8 -8 -3 -42 -14 -76 -26 -78 -26 -330 -119 -369
-136 -16 -8 -68 -30 -115 -49 -156 -64 -543 -245 -590 -276 -8 -6 -26 -15 -40
-20 -14 -6 -38 -19 -55 -29 -29 -17 -30 -20 -29 -92 3 -143 17 -370 30 -489 2
-25 7 -74 9 -110 4 -65 11 -135 20 -200 3 -19 7 -57 10 -85 3 -27 8 -63 11
-80 3 -16 7 -48 9 -70 4 -48 16 -132 21 -160 3 -11 7 -36 9 -55 3 -19 9 -60
15 -90 5 -30 11 -72 14 -92 12 -81 18 -113 22 -119 2 -4 6 -28 9 -55 4 -26 8
-51 11 -56 3 -4 7 -22 10 -40 3 -18 7 -43 9 -55 3 -13 7 -33 9 -45 10 -57 15
-80 41 -183 14 -60 28 -119 30 -130 8 -43 25 -111 34 -142 5 -18 8 -33 5 -33
-3 0 0 -8 5 -18 6 -11 12 -30 15 -43 3 -13 22 -82 42 -154 20 -71 37 -134 38
-140 1 -5 4 -14 7 -20 3 -5 12 -32 19 -60 7 -27 17 -54 21 -60 5 -5 9 -16 9
-25 0 -26 145 -451 188 -552 11 -25 18 -49 15 -52 -4 -3 -1 -6 5 -6 7 0 12 -6
12 -14 0 -14 155 -371 182 -419 7 -12 13 -24 13 -27 1 -3 16 -34 35 -70 19
-36 34 -67 35 -70 0 -5 57 -111 128 -240 65 -119 234 -400 299 -497 37 -56 68
-107 68 -113 0 -5 5 -10 10 -10 6 0 10 -4 10 -10 0 -5 7 -18 15 -27 8 -10 57
-79 109 -153 52 -74 104 -145 115 -157 12 -12 21 -26 21 -30 0 -5 10 -20 23
-33 12 -14 51 -64 86 -110 66 -86 225 -281 290 -356 51 -58 167 -187 231 -258
179 -197 615 -615 804 -771 27 -22 58 -48 70 -58 11 -10 34 -28 49 -40 15 -12
38 -31 51 -42 47 -41 74 -62 191 -150 66 -49 126 -95 135 -102 8 -7 53 -39
100 -72 47 -33 90 -65 97 -70 7 -6 16 -11 21 -11 4 0 17 -8 28 -18 61 -57 63
-57 150 0 43 29 81 56 82 60 2 5 10 8 18 8 8 0 14 4 14 8 0 4 13 16 30 25 16
10 35 23 42 30 7 7 31 26 53 42 22 17 49 38 60 48 11 10 41 35 67 55 27 20 48
40 48 44 0 4 5 8 10 8 6 0 18 8 28 17 29 28 82 74 142 123 30 25 57 47 60 50
3 3 30 25 60 50 85 70 111 92 155 135 23 22 72 67 110 100 199 174 575 548
735 731 104 120 192 223 214 252 11 15 23 29 26 32 3 3 21 25 40 50 19 25 37
47 40 50 4 3 49 61 100 130 52 69 98 130 103 135 27 33 117 167 117 174 0 5 4
11 9 13 9 3 159 227 211 313 13 22 27 42 30 45 4 3 14 19 22 35 8 17 53 95
100 175 102 176 306 560 313 590 1 3 18 41 39 85 21 44 67 148 102 230 36 83
70 161 76 175 7 14 12 30 13 37 0 6 4 15 8 19 4 4 7 16 7 26 0 10 5 18 10 18
6 0 10 6 10 13 0 6 21 66 46 132 25 66 47 131 50 144 3 13 9 32 15 43 12 22
83 239 104 318 1 3 11 38 24 79 12 41 24 81 26 90 2 9 16 59 31 111 14 52 28
103 30 113 2 9 6 25 8 35 2 9 9 37 16 62 7 25 14 56 16 70 3 14 9 39 14 55 5
17 14 55 19 85 6 30 14 66 17 80 13 58 25 117 30 150 3 19 7 41 10 49 2 8 7
30 10 50 6 41 9 56 23 129 6 29 10 56 10 60 -1 4 0 9 1 12 2 5 4 17 13 85 4
22 9 56 12 75 10 64 15 105 20 150 3 25 7 59 10 75 2 17 7 53 10 80 3 28 8 70
10 95 6 46 9 83 20 205 3 39 8 90 10 115 7 62 16 272 18 409 l2 114 -100 51
c-55 28 -101 54 -103 59 -2 4 -7 7 -12 7 -5 0 -74 32 -155 70 -81 39 -148 70
-151 70 -2 0 -32 13 -66 29 -103 48 -303 130 -483 198 -193 73 -646 220 -795
259 -8 2 -67 18 -130 35 -63 17 -146 37 -185 46 -82 18 -83 18 -115 26 -14 4
-36 9 -50 11 -77 15 -103 20 -150 31 -3 1 -30 5 -60 9 -30 5 -64 10 -75 12
-11 2 -33 6 -50 9 -16 3 -41 7 -55 10 -14 2 -42 7 -62 10 -21 3 -53 7 -70 10
-75 11 -223 28 -255 29 -13 0 -23 2 -23 6 0 3 -21 6 -48 6 -45 1 -181 10 -307
20 -74 7 -833 13 -838 7z m-362 -1026 c61 -3 124 -8 140 -11 17 -3 46 -9 65
-13 19 -3 41 -7 49 -9 8 -2 47 -19 86 -38 79 -39 142 -95 182 -163 74 -126 79
-398 10 -528 -64 -119 -162 -184 -303 -200 -33 -4 -61 -9 -63 -11 -8 -8 6 -14
35 -16 16 -1 34 -4 39 -7 6 -3 15 -6 20 -6 22 -2 71 -18 83 -28 6 -5 12 -6 12
-2 0 4 18 -8 40 -25 82 -65 118 -163 124 -338 5 -117 16 -141 67 -138 59 4 64
20 66 199 1 89 2 168 2 174 1 9 20 12 69 10 l67 -2 0 -175 c-1 -211 -6 -257
-41 -327 -74 -152 -228 -219 -494 -216 -202 3 -314 46 -395 155 -22 29 -58
133 -54 155 1 4 0 10 -1 13 -1 3 -4 64 -6 135 -2 72 -5 137 -5 145 -1 37 -24
117 -41 147 -22 36 -89 63 -161 63 -34 0 -39 -3 -34 -20 3 -11 2 -22 -1 -24
-4 -2 -5 -47 -2 -100 5 -85 9 -99 30 -120 22 -22 66 -34 122 -36 14 0 16 -22
16 -212 1 -117 -1 -220 -4 -229 -4 -14 -58 -16 -544 -16 -382 0 -540 3 -543
11 -2 6 -3 108 -3 226 l1 215 58 7 c32 4 70 13 85 20 40 19 64 73 59 136 -2
28 1 52 5 52 5 0 6 5 3 10 -10 16 -11 150 -2 150 5 0 5 5 2 11 -4 6 -7 100 -7
211 0 216 -5 249 -40 278 -22 18 -104 36 -140 31 -22 -3 -21 -19 -22 241 l-1
217 120 3 c173 4 1120 0 1250 -5z m2656 -9 c4 -7 5 -16 2 -20 -2 -5 -4 -73 -4
-151 2 -167 2 -143 1 -334 l-1 -153 -37 -1 c-285 -4 -392 -3 -393 6 0 6 -3 28
-5 50 -2 22 -5 49 -8 60 -2 11 -5 22 -5 25 -1 3 -11 16 -24 30 -32 36 -47 39
-218 41 -72 0 -133 -1 -136 -4 -3 -3 -6 -77 -7 -164 l-1 -158 185 -2 c102 -1
190 -2 196 -2 6 -1 10 -17 9 -36 0 -19 3 -35 7 -35 5 0 5 -8 1 -17 -10 -21 -9
-65 1 -81 3 -6 2 -13 -3 -17 -6 -3 -8 -12 -5 -19 4 -11 -31 -13 -190 -12 -124
1 -196 -3 -197 -9 0 -5 -2 -85 -2 -177 -2 -141 0 -168 13 -171 8 -1 74 -2 145
-1 149 2 195 15 219 63 9 17 16 34 15 38 -1 4 0 10 1 13 1 3 3 23 5 45 1 22 3
45 4 50 1 9 159 11 394 6 l38 -1 0 -67 c-1 -38 -1 -75 0 -83 0 -8 0 -80 0
-160 0 -80 -1 -154 -1 -165 0 -11 0 -59 0 -108 l-1 -87 -881 2 -882 3 0 224
c-1 141 3 225 9 227 6 1 34 5 64 9 55 6 103 32 121 66 6 11 8 24 5 29 -3 6 -3
10 2 10 4 0 7 28 5 62 -3 81 -3 76 0 124 1 22 -2 45 -5 51 -4 7 -4 14 0 16 10
6 9 129 0 145 -4 6 -4 13 0 15 5 3 7 52 6 109 -2 56 -3 118 -3 136 -1 88 -48
129 -152 134 -36 1 -48 6 -49 17 -4 66 -3 425 1 432 8 12 251 14 1064 12 530
-2 691 -5 697 -15z m-1851 -2018 c30 -5 70 -11 89 -14 65 -13 221 -75 221 -88
0 -5 7 -8 15 -8 25 0 159 -142 192 -205 107 -204 99 -504 -18 -685 -94 -146
-231 -235 -424 -276 -78 -17 -250 -22 -360 -11 -310 32 -540 237 -580 517 -11
72 -8 210 5 279 32 176 135 318 293 406 63 34 180 72 259 83 81 11 237 12 308
2z m-1370 -26 c13 -3 15 -29 15 -154 0 -94 -3 -151 -10 -152 -5 0 -14 -2 -20
-3 -35 -5 -87 -29 -95 -45 -10 -18 -16 -558 -6 -567 3 -3 51 -5 107 -5 143 1
162 17 171 145 l4 52 145 2 145 1 -1 -254 0 -254 -55 0 c-30 0 -62 0 -70 -1
-8 0 -24 0 -35 1 -11 0 -27 0 -35 0 -8 -1 -28 -1 -45 -1 -16 1 -37 1 -45 0 -8
0 -24 0 -35 1 -11 0 -50 0 -87 -1 -37 0 -72 2 -78 6 -5 3 -10 2 -10 -4 0 -6
-11 -6 -30 -1 -17 5 -32 5 -35 0 -3 -5 -16 -5 -30 0 -15 6 -27 6 -30 -1 -4 -5
-11 -6 -17 -3 -8 5 -39 6 -130 3 -7 0 -22 0 -33 1 -11 0 -40 0 -65 0 -25 -1
-61 -1 -80 -1 -34 1 -54 1 -85 1 -8 0 -22 0 -30 0 -8 0 -22 0 -30 0 -8 0 -23
0 -32 0 -10 0 -34 0 -53 0 l-35 -1 1 151 c0 82 4 153 7 157 4 3 17 7 29 8 47
4 76 17 88 40 14 26 21 465 8 465 -4 0 -5 7 -2 15 4 8 3 26 0 39 -6 25 -48 45
-98 49 -13 0 -25 4 -28 8 -4 5 -5 271 -1 300 1 6 727 10 751 3z m3038 -13 c4
-9 7 -79 7 -155 l-1 -139 -39 -4 c-70 -5 -71 -32 -10 -185 25 -62 51 -124 56
-138 6 -14 10 -25 8 -25 -1 0 4 -11 11 -25 8 -14 15 -27 15 -30 3 -9 26 -63
52 -123 25 -56 63 -90 96 -86 6 1 22 1 33 0 21 -1 22 -4 20 -153 l-1 -152 -26
-7 c-15 -3 -33 -3 -40 1 -7 5 -20 5 -29 0 -9 -5 -22 -5 -29 -1 -7 5 -29 5 -49
2 -20 -4 -50 -4 -67 -1 -16 4 -39 3 -51 -1 -11 -4 -27 -3 -34 1 -8 5 -21 5
-30 0 -9 -5 -22 -5 -30 0 -8 5 -21 5 -30 0 -9 -5 -22 -5 -28 -1 -7 4 -35 5
-62 1 -27 -4 -55 -3 -62 1 -6 4 -19 4 -28 -1 -9 -5 -22 -5 -29 -1 -7 5 -29 5
-49 2 -20 -4 -49 -4 -63 -1 l-25 5 1 145 c1 80 2 150 3 156 1 6 14 10 28 8 64
-7 99 30 80 85 l-11 33 -110 0 c-60 -1 -120 -1 -131 -1 -22 -1 -33 -17 -40
-62 -7 -38 22 -56 92 -58 19 -1 22 -6 20 -43 -1 -24 1 -53 6 -65 4 -13 4 -23
-1 -23 -9 0 -8 -31 3 -48 4 -6 3 -12 -1 -12 -5 0 -8 -26 -7 -58 2 -62 2 -62
-51 -62 -14 0 -33 0 -42 0 -10 0 -46 0 -80 -1 -34 0 -67 2 -72 6 -6 3 -11 2
-11 -4 0 -6 -11 -6 -30 -1 -17 5 -32 5 -35 0 -3 -5 -16 -5 -30 0 -15 6 -27 6
-30 -1 -4 -5 -11 -6 -17 -3 -6 4 -36 7 -68 6 l-57 0 1 156 1 155 40 2 c22 1
45 3 52 4 18 2 54 66 96 171 21 52 45 111 54 130 9 19 16 41 16 48 0 6 3 12 7
12 4 0 7 6 7 13 1 6 15 45 32 86 43 102 45 116 14 136 -13 9 -27 14 -30 11 -3
-3 -13 -1 -23 4 -15 8 -17 28 -17 158 l0 149 424 0 c378 0 425 -2 431 -16z
m-3278 -1464 c50 4 227 3 305 -1 143 -9 193 -21 302 -73 119 -57 225 -203 257
-354 16 -74 18 -252 4 -313 -6 -22 -11 -45 -12 -51 -6 -30 -32 -94 -48 -120
-10 -16 -21 -37 -25 -45 -11 -26 -133 -140 -148 -140 -8 0 -15 -4 -15 -9 0 -4
-35 -20 -78 -34 -74 -25 -93 -29 -172 -43 -42 -8 -929 -11 -939 -4 -13 9 -10
291 3 295 6 2 26 6 45 9 19 3 44 14 55 26 20 19 21 31 21 265 l0 244 -24 20
c-13 12 -32 22 -43 22 -10 1 -22 3 -28 4 -5 1 -16 3 -23 4 -11 1 -13 33 -13
149 l1 147 225 2 c124 2 232 4 240 6 8 1 31 0 50 -3 19 -3 46 -5 60 -3z m1941
1 c72 1 99 -2 100 -11 1 -14 0 -370 0 -409 -1 -25 -3 -27 -25 -18 -13 5 -26 7
-28 5 -3 -3 -58 -6 -108 -5 -8 0 -33 0 -56 -2 -49 -2 -66 7 -63 35 3 29 -17
77 -38 92 -21 16 -236 18 -227 3 9 -14 10 -148 2 -151 -4 -1 -2 -13 5 -27 12
-24 14 -24 130 -23 133 1 128 5 124 -92 l-2 -50 -127 0 -126 0 0 -32 c0 -17
-3 -36 -6 -42 -4 -5 -3 -12 2 -15 7 -4 8 -96 1 -126 -3 -12 13 -15 95 -17 133
-2 153 8 162 82 2 17 6 35 8 42 6 15 276 14 277 -1 5 -111 -1 -420 -9 -425 -8
-4 -1038 -7 -1124 -2 -15 1 -16 17 -15 148 l2 148 40 8 c22 4 45 8 51 9 7 1
18 15 26 32 11 24 14 81 13 256 -1 239 -6 265 -48 275 -29 8 -59 13 -73 14 -8
1 -12 47 -12 150 l0 149 461 1 c253 1 462 3 465 6 3 2 9 2 15 -2 5 -3 54 -5
108 -5z m1129 -10 c8 -3 42 -10 75 -17 232 -50 394 -245 409 -494 3 -43 8 -82
11 -87 3 -6 2 -10 -2 -10 -5 0 -9 -21 -9 -47 0 -56 -24 -183 -35 -183 -4 0
-10 -16 -13 -35 -4 -19 -10 -35 -14 -35 -4 0 -13 -13 -20 -29 -13 -29 -73 -96
-123 -136 -51 -42 -184 -89 -284 -102 -27 -4 -255 -7 -505 -7 l-455 -1 -2 148
c0 81 2 147 5 148 66 8 127 33 117 49 -3 5 -2 11 2 13 5 3 8 112 7 243 l-1
237 -27 24 c-15 12 -37 24 -49 24 -12 1 -29 2 -37 3 -13 1 -15 25 -16 146 -1
80 0 147 1 150 4 6 942 4 965 -2z m-2060 -1770 c0 -19 81 -222 93 -235 8 -7
62 -14 141 -17 71 -4 131 -8 133 -10 2 -2 -10 -14 -27 -26 -17 -12 -45 -35
-63 -51 -17 -16 -34 -29 -37 -29 -3 0 -25 -17 -48 -38 l-42 -38 19 -60 c10
-32 22 -75 26 -94 4 -19 11 -39 15 -45 7 -10 20 -65 15 -65 -8 0 -60 32 -141
86 l-91 61 -114 -73 c-63 -40 -117 -73 -121 -73 -3 -1 9 56 28 127 19 70 34
130 34 134 0 4 -33 33 -72 65 -40 32 -82 66 -93 75 -11 10 -29 24 -40 32 -20
15 -19 15 5 17 105 4 172 7 211 8 50 1 46 -4 89 96 7 17 21 57 25 75 13 52 55
112 55 78z m985 -10 c4 -13 13 -36 20 -53 7 -16 26 -64 42 -105 28 -72 31 -75
64 -77 19 -1 75 -4 124 -7 50 -3 93 -5 98 -6 25 -1 9 -16 -192 -177 -5 -3 23
-111 52 -201 18 -56 17 -93 -1 -66 -4 5 -29 23 -55 38 -27 15 -74 45 -104 66
l-55 39 -56 -36 c-31 -20 -83 -54 -115 -76 -32 -21 -61 -37 -63 -34 -3 3 10
63 29 135 33 124 34 130 17 145 -10 8 -21 13 -24 10 -3 -4 -6 -2 -6 4 0 5 -28
32 -62 58 -35 27 -74 59 -87 72 l-24 23 24 1 c13 1 51 2 84 4 33 1 85 3 115 4
l55 1 43 108 c23 59 42 113 42 120 0 6 5 12 11 12 5 0 7 5 4 10 -3 6 -2 10 4
10 5 0 13 -10 16 -22z"/>
<path d="M3104 6801 c0 -127 3 -191 10 -192 136 -12 225 14 257 73 33 62 27
207 -11 255 -31 39 -64 50 -166 52 l-90 2 0 -190z"/>
<path d="M4155 5124 c-82 -28 -106 -97 -110 -320 -5 -297 34 -386 169 -386 98
0 151 74 162 227 9 116 3 286 -11 350 -4 17 -16 49 -32 81 -26 51 -107 73
-178 48z"/>
<path d="M5465 4968 c-2 -7 -20 -60 -39 -117 -36 -105 -43 -136 -28 -127 4 2
14 1 22 -4 9 -5 19 -5 27 2 9 7 13 7 13 -1 0 -7 5 -9 12 -5 6 4 29 6 50 6 36
-2 39 0 32 21 -44 143 -76 237 -80 237 -2 0 -6 -6 -9 -12z"/>
<path d="M2781 3611 c-5 -4 -9 -125 -10 -294 l0 -287 32 -1 c144 -4 199 19
241 99 21 41 27 75 31 169 6 182 -48 293 -150 309 -5 1 -12 3 -15 4 -12 5
-121 6 -129 1z"/>
<path d="M5454 3606 c-2 -6 -3 -139 -2 -295 l3 -285 65 3 c55 3 97 6 120 10 8
2 82 71 75 71 -3 0 1 10 9 23 21 33 30 82 31 177 1 99 -13 173 -44 223 -20 32
-71 76 -71 61 0 -4 -6 -1 -14 5 -18 15 -166 21 -172 7z"/>
</g>
</svg>
